<!-- Generated by IcoMoon.io -->
<svg version="1.1" xmlns="http://www.w3.org/2000/svg" width="512" height="512" viewBox="0 0 512 512">
<g id="icomoon-ignore">
</g>
<path d="M192 144c0-44.183 35.817-80 80-80s80 35.817 80 80c0 44.183-35.817 80-80 80s-80-35.817-80-80zM0 144c0-44.183 35.817-80 80-80s80 35.817 80 80c0 44.183-35.817 80-80 80s-80-35.817-80-80zM384 304v-48c0-17.6-14.4-32-32-32h-320c-17.6 0-32 14.4-32 32v160c0 17.6 14.4 32 32 32h320c17.6 0 32-14.4 32-32v-48l128 80v-224l-128 80zM320 384h-256v-96h256v96z"></path>
</svg>
