<!-- Generated by IcoMoon.io -->
<svg version="1.1" xmlns="http://www.w3.org/2000/svg" width="768" height="768" viewBox="0 0 768 768">
<g id="icomoon-ignore">
</g>
<path fill="#000" d="M627.238 136.641c-9.394 0-18.343 1.934-26.478 5.417-0.945-15.606-7.298-30.606-18.071-42.118-12.714-13.584-30.677-21.375-49.283-21.375h-298.813c-18.606 0-36.57 7.791-49.282 21.375-10.769 11.507-17.12 26.499-18.068 42.12-8.136-3.483-17.085-5.418-26.481-5.418h-140.763v82.149c0 53.762 43.739 97.5 97.5 97.5h80.979l21.033 310.214c2.392 35.29 31.974 62.934 67.345 62.934h234.282c35.372 0 64.954-27.643 67.345-62.934l21.033-310.214h80.982c53.762 0 97.5-43.738 97.5-97.5v-82.149zM163.261 271.29h-65.761c-28.948 0-52.5-23.551-52.5-52.5v-37.149h95.762c12.406 0 22.5 10.094 22.5 22.5zM323.988 644.438v-45h37.512v-45h-37.512v-37.5c0-4.135 3.364-7.5 7.5-7.5h105.024c4.136 0 7.5 3.365 7.5 7.5v37.5h-37.512v45h37.512v45zM501.141 644.438h-12.129v-127.5c0-28.948-23.552-52.5-52.5-52.5h-105.024c-28.949 0-52.5 23.552-52.5 52.5v127.5h-12.129c-11.79 0-21.653-9.214-22.449-20.977l-22.072-325.523h82.966v-45h-86.019l-7.146-105.386c-0.415-6.279 1.724-12.268 6.024-16.863s10.135-7.125 16.428-7.125h298.813c6.293 0 12.128 2.53 16.428 7.125 4.299 4.595 6.439 10.584 6.025 16.83l-7.148 105.419h-86.017v45h82.966l-22.070 325.521c-0.798 11.763-10.659 20.979-22.449 20.979zM723 218.79c0 28.949-23.552 52.5-52.5 52.5h-65.762v-67.149c0-12.406 10.094-22.5 22.5-22.5h95.762z"></path>
</svg>
