<!-- Generated by IcoMoon.io -->
<svg version="1.1" xmlns="http://www.w3.org/2000/svg" width="768" height="768" viewBox="0 0 768 768">
<g id="icomoon-ignore">
</g>
<path fill="#000" d="M387.252 704.76c-1.752 0-3.528-0.252-5.292-0.792-9.504-2.928-14.844-12.996-11.928-22.5 11.664-37.968 46.212-63.48 85.968-63.48h216c9.924 0 18-8.076 18-18s8.064-18 18-18 18 8.052 18 18c0 29.772-24.228 54-54 54h-216c-23.472 0-44.676 15.648-51.552 38.040-2.376 7.74-9.504 12.72-17.208 12.72z"></path>
<path fill="#000" d="M672 726h-252c-29.772 0-54-24.228-54-54v-372.48c0-62.856 51.144-114 114-114h58.44c9.936 0 18 8.052 18 18s-8.064 18-18 18h-58.44c-43.008 0-78 34.992-78 78v372.48c0 9.924 8.076 18 18 18h252c9.924 0 18-8.076 18-18v-432.48c0-9.924-8.076-18-18-18h-42.252c-9.936 0-18-8.052-18-18s8.064-18 18-18h42.252c29.772 0 54 24.228 54 54v432.48c0 29.772-24.228 54-54 54z"></path>
<path fill="#000" d="M629.748 371.364h-167.484c-9.936 0-18-8.052-18-18s8.064-18 18-18h167.484c9.936 0 18 8.052 18 18s-8.064 18-18 18z"></path>
<path fill="#000" d="M629.748 437.748h-167.484c-9.936 0-18-8.052-18-18s8.064-18 18-18h167.484c9.936 0 18 8.052 18 18s-8.064 18-18 18z"></path>
<path fill="#000" d="M629.748 504.132h-167.484c-9.936 0-18-8.052-18-18s8.064-18 18-18h167.484c9.936 0 18 8.052 18 18s-8.064 18-18 18z"></path>
<path fill="#000" d="M629.748 570.504h-167.484c-9.936 0-18-8.052-18-18s8.064-18 18-18h167.484c9.936 0 18 8.052 18 18s-8.064 18-18 18z"></path>
<path fill="#000" d="M629.748 304.98h-67.404c-9.936 0-18-8.052-18-18s8.064-18 18-18h67.404c9.936 0 18 8.052 18 18s-8.064 18-18 18z"></path>
<path fill="#000" d="M546 60.252l3.264 14.616c7.56 33.924 34.056 60.432 67.992 67.992l14.616 3.264-14.616 3.264c-33.924 7.56-60.432 34.056-67.992 67.992l-3.264 14.616-3.264-14.616c-7.56-33.924-34.056-60.432-67.992-67.992l-14.616-3.264 14.616-3.264c33.924-7.56 60.432-34.056 67.992-67.992l3.264-14.616z"></path>
<path fill="#000" d="M546 249.984c-8.436 0-15.744-5.856-17.568-14.088l-3.252-14.616c-6.012-26.988-27.336-48.312-54.336-54.336l-14.616-3.252c-8.244-1.836-14.088-9.132-14.088-17.568s5.844-15.732 14.088-17.568l14.616-3.252c27-6.024 48.324-27.348 54.336-54.336l3.252-14.616c1.824-8.232 9.132-14.088 17.568-14.088s15.744 5.856 17.568 14.088l3.252 14.616c6.012 26.988 27.336 48.312 54.336 54.336l14.616 3.252c8.244 1.836 14.088 9.132 14.088 17.568s-5.844 15.732-14.088 17.568l-14.616 3.252c-27 6.024-48.324 27.348-54.336 54.336l-3.252 14.616c-1.824 8.232-9.132 14.088-17.568 14.088zM513.036 146.112c13.236 8.46 24.504 19.74 32.964 32.964 8.46-13.224 19.74-24.504 32.964-32.964-13.236-8.46-24.504-19.74-32.964-32.964-8.46 13.224-19.74 24.504-32.964 32.964z"></path>
<path fill="#000" d="M380.76 704.76c1.752 0 3.528-0.252 5.292-0.792 9.504-2.928 14.844-12.996 11.928-22.5-11.664-37.968-46.212-63.48-85.968-63.48h-216c-9.924 0-18-8.076-18-18 0-9.948-8.064-18-18-18s-18 8.052-18 18c0 29.772 24.228 54 54 54h216c23.472 0 44.676 15.648 51.552 38.040 2.376 7.74 9.504 12.72 17.208 12.72z"></path>
<path fill="#000" d="M96.012 726h252c29.772 0 54-24.228 54-54v-372.48c0-62.856-51.144-114-114-114h-58.44c-9.936 0-18 8.052-18 18s8.064 18 18 18h58.44c43.008 0 78 34.992 78 78v372.48c0 9.924-8.076 18-18 18h-252c-9.924 0-18-8.076-18-18v-432.48c0-9.924 8.076-18 18-18h42.252c9.936 0 18-8.052 18-18s-8.064-18-18-18h-42.252c-29.772 0-54 24.228-54 54v432.48c0 29.772 24.228 54 54 54z"></path>
<path fill="#000" d="M138.264 371.364h167.484c9.936 0 18-8.052 18-18s-8.064-18-18-18h-167.484c-9.936 0-18 8.052-18 18s8.064 18 18 18z"></path>
<path fill="#000" d="M138.264 437.748h167.484c9.936 0 18-8.052 18-18s-8.064-18-18-18h-167.484c-9.936 0-18 8.052-18 18s8.064 18 18 18z"></path>
<path fill="#000" d="M138.264 504.132h167.484c9.936 0 18-8.052 18-18s-8.064-18-18-18h-167.484c-9.936 0-18 8.052-18 18s8.064 18 18 18z"></path>
<path fill="#000" d="M138.264 570.504h167.484c9.936 0 18-8.052 18-18s-8.064-18-18-18h-167.484c-9.936 0-18 8.052-18 18s8.064 18 18 18z"></path>
<path fill="#000" d="M138.264 304.98h67.404c9.936 0 18-8.052 18-18s-8.064-18-18-18h-67.404c-9.936 0-18 8.052-18 18s8.064 18 18 18z"></path>
<path fill="#000" d="M222.012 60.252l-3.264 14.616c-7.56 33.924-34.056 60.432-67.992 67.992l-14.616 3.264 14.616 3.264c33.924 7.56 60.432 34.056 67.992 67.992l3.264 14.616 3.264-14.616c7.56-33.924 34.056-60.432 67.992-67.992l14.616-3.264-14.616-3.264c-33.924-7.56-60.432-34.056-67.992-67.992l-3.264-14.616z"></path>
<path fill="#000" d="M204.444 235.896l-3.252-14.616c-6.012-26.988-27.336-48.312-54.336-54.336l-14.616-3.252c-8.244-1.836-14.088-9.132-14.088-17.568s5.844-15.732 14.088-17.568l14.616-3.252c27-6.024 48.324-27.348 54.336-54.336l3.252-14.616c1.824-8.232 9.132-14.088 17.568-14.088s15.744 5.856 17.568 14.088l3.252 14.616c6.012 26.988 27.336 48.312 54.336 54.336l14.616 3.252c8.244 1.836 14.088 9.132 14.088 17.568s-5.844 15.732-14.088 17.568l-14.616 3.252c-27 6.024-48.324 27.348-54.336 54.336l-3.252 14.616c-1.824 8.232-9.132 14.088-17.568 14.088s-15.744-5.856-17.568-14.088zM222.012 113.16c-8.46 13.224-19.74 24.504-32.964 32.964 13.236 8.46 24.504 19.74 32.964 32.964 8.46-13.224 19.74-24.504 32.964-32.964-13.236-8.46-24.504-19.74-32.964-32.964z"></path>
</svg>
