<!-- Generated by IcoMoon.io -->
<svg version="1.1" xmlns="http://www.w3.org/2000/svg" width="640" height="640" viewBox="0 0 640 640">
<g id="icomoon-ignore">
</g>
<path fill="#000" d="M93.76 546.24c-60.273-58.271-97.692-139.851-97.692-230.173 0-176.731 143.269-320 320-320 90.321 0 171.902 37.42 230.086 97.602l0.086 0.090c55.578 57.487 89.828 135.897 89.828 222.307 0 176.731-143.269 320-320 320-86.41 0-164.821-34.249-222.398-89.914l0.090 0.086zM501.12 501.12c46.352-46.352 75.022-110.388 75.022-181.12 0-141.464-114.679-256.142-256.142-256.142-70.732 0-134.767 28.67-181.12 75.023v0c-46.352 46.352-75.023 110.388-75.023 181.12 0 141.464 114.679 256.142 256.142 256.142 70.732 0 134.767-28.67 181.12-75.022v0zM224 192l256 128-256 128v-256z"></path>
</svg>
