<!-- Generated by IcoMoon.io -->
<svg version="1.1" xmlns="http://www.w3.org/2000/svg" width="768" height="768" viewBox="0 0 768 768">
<g id="icomoon-ignore">
</g>
<path fill="#000" d="M760.956 396.274c-37.128-37.127-97.535-37.127-134.661 0l-0.446 0.445c-19.557 19.557-51.379 19.558-70.991-0.053l-0.394-0.392c-37.126-37.127-97.534-37.13-134.661 0l-0.446 0.445c-3.86 3.86-8.201 6.945-12.828 9.281v-147.87c52.595-3.989 94.383-22.316 124.427-54.64 53.516-57.575 48.304-137.851 48.056-141.241l-1.419-19.405-19.406-1.419c-3.389-0.246-83.663-5.461-141.241 48.056-13.399 12.454-24.381 26.935-32.947 43.357-8.566-16.422-19.548-30.903-32.947-43.357-57.576-53.519-137.851-48.303-141.241-48.056l-19.405 1.419-1.419 19.406c-0.248 3.39-5.459 83.666 48.056 141.241 30.043 32.324 71.831 50.649 124.426 54.64v147.968c-4.727-2.357-9.165-5.492-13.105-9.43l-0.394-0.392c-37.128-37.127-97.535-37.127-134.661 0l-0.446 0.445c-9.474 9.474-22.070 14.692-35.469 14.692-13.397 0-25.996-5.219-35.521-14.745l-0.394-0.392c-37.127-37.127-97.534-37.129-134.661 0l-6.822 6.822v323.725h768v-323.525zM431.312 547.699c0 16.411-6.148 43.946-47.312 43.946s-47.312-27.534-47.312-43.946c0-19.181 24.536-47.756 47.282-67.564 20.69 18.082 47.341 47.048 47.341 67.564zM447.356 122.734c27.428-25.661 63.453-33.395 86.057-35.625-2.163 22.451-9.814 58.114-35.46 85.705-21.212 22.823-51.527 36.229-90.322 39.994 3.747-38.642 17.066-68.875 39.724-90.074zM270.298 173.081c-25.661-27.427-33.395-63.453-35.625-86.056 22.451 2.162 58.114 9.812 85.705 35.458 22.823 21.212 36.229 51.527 39.994 90.322-38.642-3.749-68.875-17.066-90.074-39.724zM722.942 681.762h-677.883v-259.027c19.581-13.956 47.011-12.152 64.563 5.399l0.446 0.445c17.984 17.986 41.897 27.889 67.33 27.889 25.435 0 49.345-9.905 67.277-27.837l0.499-0.497c19.557-19.557 51.382-19.558 70.939 0l0.446 0.445c9.782 9.784 21.19 16.961 33.353 21.59-23.62 21.352-58.28 59.213-58.28 97.531 0 53.235 37.12 89.004 92.37 89.004s92.37-35.768 92.37-89.004c0-38.348-34.717-76.239-58.337-97.582 12.086-4.623 23.416-11.768 33.133-21.487l0.499-0.497c19.558-19.557 51.383-19.555 70.939 0l0.446 0.445c37.125 37.13 97.534 37.126 134.606 0.053l0.499-0.497c17.617-17.612 45.176-19.363 64.787-5.233z"></path>
</svg>
