<!-- Generated by IcoMoon.io -->
<svg version="1.1" xmlns="http://www.w3.org/2000/svg" width="768" height="768" viewBox="0 0 768 768">
<g id="icomoon-ignore">
</g>
<path fill="#000" d="M544 576c-17.696 0-32-14.304-32-32s14.304-32 32-32c52.928 0 96-43.072 96-96s-43.072-96-96-96c-7.616 0-15.872 1.344-26.016 4.192l-34.272 9.632-5.952-35.136c-10.432-61.824-63.328-106.688-125.76-106.688-70.56 0-128 57.408-128 128 0 8.768 0.864 17.44 2.624 25.792l8.32 39.68-45.952-1.664c-32.32 0.192-60.992 28.896-60.992 64.192s28.672 64 64 64c17.696 0 32 14.304 32 32s-14.304 32-32 32c-70.56 0-128-57.408-128-128 0-59.552 40.864-109.728 96.064-123.968-0.064-1.344-0.064-2.688-0.064-4.032 0-105.888 86.112-192 192-192 82.784 0 154.368 52.416 180.768 128.48 93.6-7.712 171.232 67.584 171.232 159.52 0 88.224-71.776 160-160 160z"></path>
<path fill="#000" d="M404.448 448l-144 129.632 96 46.368-48 112 144-129.6-96-46.4z"></path>
</svg>
