<!-- Generated by IcoMoon.io -->
<svg version="1.1" xmlns="http://www.w3.org/2000/svg" width="768" height="768" viewBox="0 0 768 768">
<g id="icomoon-ignore">
</g>
<path fill="#000" d="M116.412 435.504c-37.080 0-62.532-28.62-72.3-47.88-4.5-8.868-0.948-19.704 7.908-24.204 8.868-4.5 19.704-0.96 24.204 7.908 3.516 6.732 23.172 39.9 59.904 23.46 59.34-26.556 128.52-13.068 131.424-12.492 9.744 1.968 16.056 11.46 14.1 21.204-1.968 9.744-11.436 16.020-21.18 14.1v0c-0.612-0.108-60.936-11.724-109.656 10.044-12.348 5.52-23.844 7.848-34.404 7.848z"></path>
<path fill="#000" d="M132 484.764c-9.936 0-18-8.052-18-18 0-29.136 27-65.808 32.412-72.876 6.060-7.884 17.34-9.384 25.224-3.324 7.896 6.036 9.384 17.34 3.348 25.236-10.368 13.572-24.984 38.364-24.984 50.976 0 9.948-8.064 18-18 18z"></path>
<path fill="#000" d="M503.904 368.748c-7.956 0-15.192-5.268-17.304-13.32-0.888-3.36-20.508-83.28 80.34-169.164 84.396-71.88 87.048-126 87.060-126.54 0.3-9.732 8.292-17.58 18-17.58 0.096 0 0.192 0 0.276 0 9.828 0.156 17.724 8.016 17.724 17.856 0 2.808-1.14 69.732-99.72 153.684-82.5 70.248-69.42 130.272-68.82 132.792 2.268 9.588-3.564 19.332-13.128 21.72-1.476 0.372-2.964 0.552-4.428 0.552z"></path>
<path fill="#000" d="M578.604 217.98c-7.86 0-15.084-5.196-17.316-13.128-2.688-9.576 2.892-19.512 12.456-22.2 7.404-2.088 73.596-19.752 116.124 1.176 8.916 4.392 12.6 15.18 8.208 24.096-4.38 8.928-15.192 12.612-24.096 8.208-25.752-12.648-74.052-3.432-90.48 1.176-1.632 0.456-3.264 0.684-4.884 0.684z"></path>
<path fill="#000" d="M202.236 233.088c-0.516 0-1.032-0.024-1.548-0.060-30.6-2.604-87.516-22.728-84.012-80.196 2.412-39.684-60.72-57.3-61.356-57.48-9.576-2.604-15.252-12.48-12.672-22.056s12.468-15.264 21.996-12.72c3.768 1.008 92.184 25.416 87.96 94.44-2.244 36.792 49.008 41.94 51.204 42.144 9.864 0.912 17.184 9.636 16.296 19.512-0.816 9.36-8.652 16.416-17.868 16.416z"></path>
<path fill="#000" d="M134.592 164.964c-1.356 0-2.736-0.156-4.116-0.48-9.6-2.268-15.6-11.736-13.44-21.36 0.516-2.256 13.152-55.356 75.792-63.396 10.008-1.26 18.888 5.712 20.148 15.564 1.272 9.852-5.7 18.876-15.552 20.148-36.528 4.692-44.52 32.616-45.3 35.784-2.052 8.196-9.42 13.752-17.532 13.752z"></path>
<path fill="#000" d="M514.2 300.204c-1.032 0-2.076-0.096-3.12-0.276-9.792-1.716-16.344-11.028-14.64-20.832 8.94-51.204-9.24-104.076-9.42-104.604-3.276-9.372 1.656-19.644 11.016-22.932 9.42-3.3 19.644 1.62 22.932 10.98 0.888 2.496 21.54 62.064 10.932 122.76-1.524 8.748-9.132 14.904-17.712 14.904z"></path>
<path fill="#000" d="M630.264 513.096c-7.032 0-13.716-4.14-16.608-11.028-7.5-17.832-50.82-43.56-79.2-56.124-9.084-4.020-13.2-14.652-9.168-23.748 4.020-9.084 14.628-13.188 23.736-9.18 13.584 6 82.152 37.848 97.812 75.096 3.852 9.168-0.444 19.716-9.612 23.568-2.28 0.96-4.656 1.416-6.972 1.416z"></path>
<path fill="#000" d="M380.652 186.516c-2.544 0-5.136-0.54-7.584-1.692-3-1.392-73.5-35.064-91.752-111.396-2.304-9.672 3.66-19.38 13.32-21.696 9.696-2.292 19.38 3.66 21.696 13.32 14.124 59.1 71.412 86.88 72 87.156 8.952 4.248 12.816 14.964 8.604 23.94-3.072 6.516-9.54 10.356-16.284 10.356z"></path>
<path fill="#000" d="M389.532 164.532c-6.096 0-12.036-3.096-15.42-8.7-5.124-8.484-2.412-19.512 6.036-24.672v0c0.36-0.228 36.252-22.716 54.648-68.604 3.708-9.24 14.208-13.716 23.4-10.008 9.24 3.696 13.716 14.184 10.020 23.412-23.040 57.492-67.5 84.84-69.384 85.98-2.904 1.764-6.12 2.592-9.288 2.592z"></path>
<path fill="#000" d="M636 353.94c-7.416 0-14.352-4.62-16.968-12-3.312-9.36 1.584-19.632 10.932-22.956 0.492-0.18 46.824-17.136 61.536-50.928 3.948-9.108 14.532-13.32 23.688-9.324 9.12 3.972 13.284 14.568 9.312 23.688-21.012 48.276-80.004 69.6-82.5 70.488-1.98 0.708-4.008 1.032-6 1.032z"></path>
<path fill="#000" d="M198.264 414.696c-6.42 0-12.636-3.444-15.876-9.504-4.932-9.216-31.548-22.908-53.292-29.916-9.456-3.048-14.664-13.188-11.628-22.644 3.048-9.456 13.128-14.7 22.632-11.628 9.828 3.156 59.592 20.244 74.028 47.184 4.704 8.76 1.392 19.68-7.368 24.372-2.712 1.452-5.616 2.136-8.484 2.136z"></path>
<path fill="#000" d="M493.212 659.748c-5.028 0-10.008-2.088-13.572-6.168-19.128-21.912-34.020-49.344-44.268-81.516-12.708-40.188-17.184-99.6 12-134.916 12.516-15.156 36.72-32.172 81.288-26.94 32.952 3.852 57.588 1.452 75.276-2.832-14.844-9.156-23.268-19.764-23.904-20.568-3.36-4.32-4.584-9.936-3.3-15.264s4.92-9.78 9.876-12.096c8.34-3.912 14.832-8.184 19.848-12.6-77.172 42.516-188.28 11.028-194.016 9.348-5.64-1.644-10.128-5.94-12.012-11.496-34.14-100.608 28.944-193.248 36.252-203.484 5.772-8.088 17.040-9.984 25.104-4.188 8.1 5.772 9.972 17.016 4.2 25.104-2.388 3.348-56.22 80.076-34.236 161.808 33.096 7.632 146.184 27.924 190.716-39.084 3.72-5.604 10.224-8.688 16.98-7.932 6.696 0.744 12.408 5.172 14.82 11.46 7.584 19.836 9.024 60.336-29.22 89.736 7.368 4.092 16.968 7.368 28.236 6.576 7.5-0.492 14.256 3.54 17.436 10.188 3.192 6.648 1.992 14.556-3 19.98-4.080 4.416-42.684 42.876-143.244 31.104-23.208-2.7-39.276 1.92-49.356 14.124-17.748 21.492-16.176 67.128-5.424 101.1 10.872 34.164 26.16 56.244 37.068 68.736 6.54 7.488 5.76 18.864-1.728 25.392-3.408 2.988-7.632 4.44-11.82 4.44z"></path>
<path fill="#000" d="M419.028 186.564c-3.888 0-7.74-0.516-11.556-1.572-27.912-7.668-39.876-40.704-43.74-54.552-2.664-9.576 2.94-19.5 12.516-22.164 9.636-2.64 19.512 2.952 22.176 12.516 4.248 15.288 12.072 27.696 18.588 29.484 4.704 1.308 12.924-3.024 21.924-11.616l24.996 25.908-0.132 0.12c-15.228 14.544-30.24 21.876-44.772 21.876z"></path>
<path fill="#000" d="M344.532 217.98c-41.16 0-78.84-38.292-90.144-50.928-6.624-7.416-5.988-18.792 1.416-25.416 7.404-6.636 18.792-5.988 25.416 1.416 14.52 16.248 45.264 42.624 68.256 38.496 20.532-3.648 14.652-47.496 13.908-52.536-0.36-1.5-0.588-3.132-0.588-4.512 0-9.948 8.064-18 18-18 8.52 0 15.66 5.928 17.532 13.872 0.048 0.204 0.096 0.408 0.156 0.624 0.132 0.552 0.252 1.128 0.336 1.704v0c6.384 38.832-1.032 86.82-43.008 94.284-3.78 0.684-7.572 0.996-11.304 0.996z"></path>
<path fill="#000" d="M258.264 575.916c-2.256 0-4.536-0.432-6.744-1.32-9.216-3.732-13.656-14.232-9.924-23.448 16.248-40.104 21.42-76.992 15.348-109.632-19.32-104.412-94.848-113.784-98.064-114.144-9.504-1.032-16.608-9.324-16.092-18.876s8.34-17.028 17.904-17.028c4.476-0.060 15.276-1.848 19.308-6.924 2.040-2.58 2.412-6.888 1.128-12.804-10.404-47.712 20.52-105.54 21.828-107.988 3.948-7.26 12.312-10.896 20.292-8.856 7.992 2.040 13.572 9.264 13.536 17.52-0.108 25.884 5.676 69.444 18.432 80.748 9.456 8.424 17.904 19.44 26.832 31.104 9.648 12.588 19.476 25.416 30.72 35.364 0.096-10.128 0.936-21.996 3.144-35.184 2.88-17.124-23.964-68.064-62.424-118.5 0.324 0.432 0.96 1.008 1.332 1.356l24.468-26.412 0.132 0.12c0.648 0.612 1.68 1.8 2.232 2.508 23.592 30.924 76.656 105.888 69.768 146.88-5.772 34.5-0.36 57.36-0.3 57.588 1.608 6.324-0.336 13.020-5.076 17.496-4.728 4.488-11.508 6.060-17.748 4.116-34.464-10.788-56.832-39.996-74.796-63.456-7.86-10.26-15.288-19.968-22.164-26.076-6.756-5.988-12.024-14.172-16.128-23.424 0.216 2.532 0.564 5.004 1.092 7.392 4.668 21.312-1.932 35.208-8.28 43.104-0.048 0.060-0.096 0.12-0.144 0.18 31.728 17.376 70.74 53.448 84.456 127.608 7.344 39.492 1.5 83.136-17.364 129.72-2.832 6.996-9.588 11.244-16.704 11.244z"></path>
<path fill="#000" d="M60.264 708s-8.736-89.988 73.416-75.144 96.828 4.068 129.012-8.436c77.268-30.012 134.556-30.636 185.172-2.448 41.28 22.98 71.004 33.348 134.316 10.896s125.808-14.16 125.808 75.144h-647.724z"></path>
<path fill="#000" d="M708 726h-647.736c-9.264 0-17.016-7.032-17.916-16.26-0.504-5.232-4.104-51.816 25.356-78.948 16.944-15.612 40.2-20.88 69.18-15.648 69.492 12.564 85.836 5.952 110.58-4.032 2.796-1.128 5.688-2.292 8.724-3.48 82.68-32.112 144.492-32.556 200.436-1.404 38.844 21.612 63.276 29.616 119.544 9.66 47.076-16.68 86.196-15.42 113.184 3.648 24.324 17.184 36.66 46.944 36.66 88.464 0 9.948-8.064 18-18 18zM78.576 690h610.368c-2.484-19.476-9.3-33.24-20.364-41.052-16.788-11.868-45.324-11.544-80.376 0.876-72.144 25.596-107.28 11.136-149.088-12.132-45.72-25.44-98.112-24.384-169.896 3.504l-8.28 3.3c-31.44 12.696-54.576 19.788-130.44 6.072-17.196-3.12-30.096-0.888-38.304 6.636-8.712 7.968-12.324 21.492-13.608 32.796z"></path>
</svg>
