<!-- Generated by IcoMoon.io -->
<svg version="1.1" xmlns="http://www.w3.org/2000/svg" width="768" height="768" viewBox="0 0 768 768">
<g id="icomoon-ignore">
</g>
<path fill="#000" d="M465.912 725.568h-296.616c-8.904 0-16.476-6.516-17.796-15.312-24.852-164.868-39.012-348.696 105.3-449.952 5.256-63.060 30.192-109.272 74.196-137.448 4.56-2.928 10.176-3.636 15.312-1.956 5.136 1.692 9.252 5.592 11.184 10.644l54.516 141.588 262.176 199.836c37.428 28.536 47.976 80.808 24.54 121.62-23.46 40.86-73.98 58.068-117.528 40.032l-128.424-53.208-2.976 1.008c34.128 39.252 34.128 93.504 34.128 125.16 0 9.936-8.064 18-18 18zM184.848 689.568h262.788c-1.332-38.112-8.544-77.088-43.008-98.868-5.856-3.708-9.072-10.44-8.256-17.328 0.804-6.876 5.508-12.696 12.072-14.916l39.132-13.308c4.152-1.416 8.652-1.26 12.696 0.408l134.7 55.8c26.892 11.124 58.056 0.528 72.528-24.708 14.472-25.188 7.956-57.444-15.144-75.048l-266.232-202.932c-2.652-2.028-4.692-4.752-5.88-7.848l-47.64-123.72c-24.744 23.64-38.040 57.936-40.464 104.112-0.3 5.724-3.3 10.944-8.088 14.088-117.78 77.436-125.892 217.596-99.216 404.268z"></path>
<path fill="#000" d="M368.436 599.292c-70.392 0-102.12-42.48-113.544-63.66-26.232-48.564-20.544-115.872 12.408-146.988 7.212-6.804 18.624-6.516 25.44 0.744 6.816 7.224 6.492 18.612-0.744 25.44-19.212 18.132-25.62 66.336-5.436 103.716 21.24 39.324 65.136 53.292 123.528 39.432 9.696-2.388 19.38 3.684 21.672 13.344 2.304 9.672-3.672 19.368-13.344 21.672-18.492 4.404-35.112 6.3-49.98 6.3z"></path>
<path fill="#000" d="M423.648 433.428c-8.124 0-15.492-5.532-17.484-13.764-3.3-13.68-8.928-22.656-16.692-26.7-11.94-6.204-27.048-0.408-27.192-0.348-9.204 3.588-19.656-0.864-23.34-10.020-3.684-9.18 0.648-19.56 9.768-23.316 3.060-1.26 30.576-11.904 56.928 1.524 17.64 8.988 29.592 25.944 35.508 50.4 2.328 9.66-3.6 19.38-13.26 21.732-1.416 0.336-2.844 0.504-4.248 0.504z"></path>
<path fill="#000" d="M102.036 646.332c-0.744 0-1.488-0.024-2.244-0.084-26.028-1.8-56.112-26.76-57.804-205.212-0.576-60.72 17.904-108.204 54.948-141.12 68.556-60.912 174.996-48.12 179.52-47.532 9.852 1.26 16.824 10.272 15.576 20.148-1.26 9.84-10.14 16.776-20.124 15.576v0c-0.936-0.108-95.004-11.22-151.188 38.832-28.824 25.704-43.212 63.972-42.744 113.748 1.284 135.024 19.932 163.896 24.624 169.020 8.772-5.652 26.364-37.2 33.684-86.208 1.476-9.84 10.668-16.716 20.46-15.144 9.828 1.464 16.608 10.632 15.144 20.46-8.532 57.18-33.936 117.504-69.852 117.504z"></path>
<path fill="#000" d="M534.348 407.040c-2.832 0-5.712-0.672-8.376-2.076-8.796-4.644-12.168-15.528-7.536-24.312l128.736-243.972-210.324 182.688c-7.524 6.504-18.864 5.712-25.392-1.788-6.516-7.5-5.724-18.864 1.788-25.392l282.96-245.784c6.528-5.676 16.212-5.904 22.992-0.504 6.78 5.376 8.772 14.832 4.728 22.5l-173.628 329.028c-3.228 6.12-9.48 9.612-15.936 9.612z"></path>
<path fill="#000" d="M530.496 404.16c-8.472 0-16.032-6.024-17.664-14.664l-27.24-144.12c-1.848-9.756 4.572-19.188 14.34-21.024 9.708-1.812 19.188 4.572 21.024 14.34l27.24 144.12c1.848 9.756-4.572 19.188-14.34 21.024-1.128 0.216-2.256 0.312-3.36 0.312z"></path>
<path fill="#000" d="M585.528 310.572c-8.484 0-16.032-6.024-17.664-14.664l-19.308-102.252c-0.432-2.268-0.42-4.608 0.036-6.864 1.956-9.756 11.508-16.056 21.192-14.184 7.86 1.572 13.5 8.004 14.364 15.552l19.092 101.064c1.848 9.756-4.572 19.188-14.34 21.024-1.128 0.228-2.256 0.312-3.36 0.312z"></path>
<path fill="#000" d="M675.204 413.616c-9.936 0-18-8.064-18-18v-65.616c0-9.936 8.064-18 18-18s18 8.064 18 18v65.616c0 9.936-8.064 18-18 18z"></path>
<path fill="#000" d="M708 380.796h-65.616c-9.936 0-18-8.064-18-18s8.064-18 18-18h65.616c9.936 0 18 8.064 18 18s-8.064 18-18 18z"></path>
<path fill="#000" d="M459.072 165.78c-9.936 0-18-8.064-18-18v-89.616c0-9.936 8.064-18 18-18s18 8.064 18 18v89.616c0 9.936-8.064 18-18 18z"></path>
<path fill="#000" d="M503.868 120.972h-89.616c-9.936 0-18-8.064-18-18s8.064-18 18-18h89.616c9.936 0 18 8.064 18 18s-8.064 18-18 18z"></path>
<path fill="#000" d="M133.308 60.3l0.972 4.356c7.56 33.924 34.056 60.432 67.992 67.992l4.356 0.972-4.356 0.972c-33.924 7.56-60.432 34.056-67.992 67.992l-0.972 4.356-0.972-4.356c-7.56-33.924-34.056-60.432-67.992-67.992l-4.356-0.972 4.356-0.972c33.924-7.56 60.432-34.056 67.992-67.992l0.972-4.356z"></path>
<path fill="#000" d="M133.308 224.928c-8.424 0-15.732-5.844-17.568-14.088l-0.972-4.356c-6.012-26.988-27.348-48.312-54.336-54.336l-4.308-0.948c-8.244-1.824-14.112-9.12-14.124-17.556s5.832-15.744 14.076-17.592l4.344-0.972c27-6.024 48.336-27.348 54.348-54.336l0.972-4.356c1.836-8.232 9.144-14.076 17.568-14.076s15.732 5.844 17.568 14.076l0.972 4.344c6.012 27 27.348 48.324 54.336 54.348l4.356 0.972c8.244 1.836 14.088 9.156 14.076 17.592s-5.88 15.732-14.124 17.556l-4.344 0.96c-26.952 6.012-48.288 27.336-54.3 54.324l-0.972 4.356c-1.836 8.244-9.144 14.088-17.568 14.088zM106.068 133.62c10.632 7.368 19.86 16.62 27.252 27.24 7.38-10.62 16.62-19.86 27.252-27.24-10.632-7.38-19.86-16.632-27.252-27.252-7.38 10.62-16.62 19.86-27.252 27.252z"></path>
</svg>
