<!-- Generated by IcoMoon.io -->
<svg version="1.1" xmlns="http://www.w3.org/2000/svg" width="640" height="640" viewBox="0 0 640 640">
<g id="icomoon-ignore">
</g>
<path fill="#000" d="M512 224l128-128v448l-128-128v96c0 35.346-28.654 64-64 64v0h-384c-35.346 0-64-28.654-64-64v0-384c0-35.2 28.8-64 64-64h384c35.346 0 64 28.654 64 64v0 96zM256 448c70.693 0 128-57.308 128-128s-57.308-128-128-128v0c-70.692 0-128 57.308-128 128s57.308 128 128 128v0zM256 384c-35.346 0-64-28.654-64-64s28.654-64 64-64v0c35.346 0 64 28.654 64 64s-28.654 64-64 64v0z"></path>
</svg>
